<?xml version="1.0" encoding="UTF-8" standalone="no"?>
<svg
   version="1.0"
   width="96.000000pt"
   height="96.000000pt"
   viewBox="0 0 96.000000 96.000000"
   preserveAspectRatio="xMidYMid meet"
   id="svg8"
   sodipodi:docname="reload.svg"
   inkscape:version="1.1.2 (0a00cf5339, 2022-02-04, custom)"
   xmlns:inkscape="http://www.inkscape.org/namespaces/inkscape"
   xmlns:sodipodi="http://sodipodi.sourceforge.net/DTD/sodipodi-0.dtd"
   xmlns:xlink="http://www.w3.org/1999/xlink"
   xmlns="http://www.w3.org/2000/svg"
   xmlns:svg="http://www.w3.org/2000/svg">
  <defs
     id="defs12">
    <linearGradient
       inkscape:collect="always"
       id="linearGradient1618">
      <stop
         style="stop-color:#a8004f;stop-opacity:1"
         offset="0"
         id="stop1614" />
      <stop
         style="stop-color:#ff00b3;stop-opacity:1"
         offset="1"
         id="stop1616" />
    </linearGradient>
    <linearGradient
       inkscape:collect="always"
       id="linearGradient852">
      <stop
         style="stop-color:#a8004f;stop-opacity:1"
         offset="0"
         id="stop848" />
      <stop
         style="stop-color:#ff00b3;stop-opacity:1"
         offset="1"
         id="stop850" />
    </linearGradient>
    <linearGradient
       inkscape:collect="always"
       xlink:href="#linearGradient1618"
       id="linearGradient885"
       gradientUnits="userSpaceOnUse"
       x1="20"
       y1="480.17679"
       x2="941.12902"
       y2="480.17679" />
    <linearGradient
       inkscape:collect="always"
       xlink:href="#linearGradient852"
       id="linearGradient912"
       x1="19.5"
       y1="480.17709"
       x2="941.62335"
       y2="480.17709"
       gradientUnits="userSpaceOnUse" />
  </defs>
  <sodipodi:namedview
     id="namedview10"
     pagecolor="#505050"
     bordercolor="#eeeeee"
     borderopacity="1"
     inkscape:pageshadow="0"
     inkscape:pageopacity="0"
     inkscape:pagecheckerboard="0"
     inkscape:document-units="pt"
     showgrid="false"
     inkscape:zoom="4.90625"
     inkscape:cx="67.872611"
     inkscape:cy="64"
     inkscape:window-width="1402"
     inkscape:window-height="903"
     inkscape:window-x="2262"
     inkscape:window-y="1521"
     inkscape:window-maximized="0"
     inkscape:current-layer="svg8" />
  <g
     transform="matrix(0.1,0,0,-0.1,0,96)"
     fill="#000000"
     stroke="none"
     id="g6"
     style="stroke:url(#linearGradient885);fill-opacity:1;fill:url(#linearGradient912);opacity:1">
    <path
       d="M 290,919 C 128,846 20,676 20,496 21,364 59,265 148,168 325,-23 635,-22 813,170 965,334 984,572 858,760 794,856 640,959 605,930 576,906 589,886 654,852 952,698 946,271 643,127 581,98 566,95 480,95 394,95 379,98 317,127 236,166 162,238 126,313 30,516 104,740 305,852 c 63,36 78,60 48,77 -14,7 -31,4 -63,-10 z"
       id="path2"
       style="stroke:url(#linearGradient885);fill-opacity:1;fill:url(#linearGradient912)" />
    <path
       d="m 414,740 c -36,-11 -50,-36 -33,-57 9,-10 26,-12 69,-7 173,19 278,-166 173,-305 -83,-109 -254,-85 -314,44 -25,53 -24,65 5,65 47,0 47,21 -1,98 -25,39 -50,72 -57,72 -16,0 -98,-140 -92,-156 3,-8 19,-14 36,-14 26,0 30,-4 30,-27 0,-35 29,-99 62,-138 69,-81 207,-104 306,-50 176,96 178,353 2,449 -56,30 -136,41 -186,26 z"
       id="path4"
       style="stroke:url(#linearGradient885);fill-opacity:1;fill:url(#linearGradient912)" />
  </g>
</svg>
