<?xml version="1.0" encoding="UTF-8" standalone="no"?>
<svg
   version="1.0"
   width="96.000000pt"
   height="96.000000pt"
   viewBox="0 0 96.000000 96.000000"
   preserveAspectRatio="xMidYMid meet"
   id="svg6"
   sodipodi:docname="reset.svg"
   inkscape:version="1.1.2 (0a00cf5339, 2022-02-04, custom)"
   xmlns:inkscape="http://www.inkscape.org/namespaces/inkscape"
   xmlns:sodipodi="http://sodipodi.sourceforge.net/DTD/sodipodi-0.dtd"
   xmlns:xlink="http://www.w3.org/1999/xlink"
   xmlns="http://www.w3.org/2000/svg"
   xmlns:svg="http://www.w3.org/2000/svg">
  <defs
     id="defs10">
    <linearGradient
       inkscape:collect="always"
       id="linearGradient831">
      <stop
         style="stop-color:#d54b56;stop-opacity:1"
         offset="0"
         id="stop827" />
      <stop
         style="stop-color:#bd0047;stop-opacity:1"
         offset="1"
         id="stop829" />
    </linearGradient>
    <linearGradient
       inkscape:collect="always"
       xlink:href="#linearGradient831"
       id="linearGradient833"
       x1="31.888686"
       y1="504.92678"
       x2="860.32087"
       y2="504.92678"
       gradientUnits="userSpaceOnUse" />
  </defs>
  <sodipodi:namedview
     id="namedview8"
     pagecolor="#505050"
     bordercolor="#eeeeee"
     borderopacity="1"
     inkscape:pageshadow="0"
     inkscape:pageopacity="0"
     inkscape:pagecheckerboard="0"
     inkscape:document-units="pt"
     showgrid="false"
     inkscape:zoom="4.90625"
     inkscape:cx="36.687898"
     inkscape:cy="64"
     inkscape:window-width="1920"
     inkscape:window-height="1049"
     inkscape:window-x="0"
     inkscape:window-y="1440"
     inkscape:window-maximized="1"
     inkscape:current-layer="svg6" />
  <g
     transform="matrix(0.1,0,0,-0.1,0,96)"
     fill="#000000"
     stroke="none"
     id="g4"
     style="fill:url(#linearGradient833);fill-opacity:1">
    <path
       d="M 388,867 C 329,850 240,792 206,748 172,703 133,615 125,563 119,522 117,521 77,518 46,516 34,510 32,497 28,479 133,292 154,278 c 6,-4 15,-6 21,-5 9,3 79,112 116,180 25,47 13,67 -39,67 h -35 l 7,41 c 24,150 183,254 330,216 231,-61 289,-348 98,-494 -59,-45 -110,-57 -208,-49 -91,8 -112,-3 -100,-49 9,-34 96,-60 177,-51 150,15 266,105 320,246 31,81 24,212 -16,293 -35,71 -107,140 -181,174 -67,31 -185,40 -256,20 z"
       id="path2"
       style="fill:url(#linearGradient833);fill-opacity:1" />
  </g>
</svg>
