<?xml version="1.0" encoding="UTF-8" standalone="no"?>
<svg
   version="1.0"
   width="96.000000pt"
   height="96.000000pt"
   viewBox="0 0 96.000000 96.000000"
   preserveAspectRatio="xMidYMid meet"
   id="svg8"
   sodipodi:docname="save.svg"
   inkscape:version="1.1.2 (0a00cf5339, 2022-02-04, custom)"
   xmlns:inkscape="http://www.inkscape.org/namespaces/inkscape"
   xmlns:sodipodi="http://sodipodi.sourceforge.net/DTD/sodipodi-0.dtd"
   xmlns:xlink="http://www.w3.org/1999/xlink"
   xmlns="http://www.w3.org/2000/svg"
   xmlns:svg="http://www.w3.org/2000/svg">
  <defs
     id="defs12">
    <linearGradient
       inkscape:collect="always"
       id="linearGradient852">
      <stop
         style="stop-color:#ff3c00;stop-opacity:1"
         offset="0"
         id="stop848" />
      <stop
         style="stop-color:#ffa100;stop-opacity:1"
         offset="1"
         id="stop850" />
    </linearGradient>
    <linearGradient
       inkscape:collect="always"
       xlink:href="#linearGradient852"
       id="linearGradient854"
       x1="5"
       y1="480.5"
       x2="961"
       y2="480.5"
       gradientUnits="userSpaceOnUse" />
    <linearGradient
       inkscape:collect="always"
       xlink:href="#linearGradient852"
       id="linearGradient948"
       x1="310"
       y1="429.49066"
       x2="610.51868"
       y2="429.49066"
       gradientUnits="userSpaceOnUse" />
  </defs>
  <sodipodi:namedview
     id="namedview10"
     pagecolor="#505050"
     bordercolor="#eeeeee"
     borderopacity="1"
     inkscape:pageshadow="0"
     inkscape:pageopacity="0"
     inkscape:pagecheckerboard="0"
     inkscape:document-units="pt"
     showgrid="false"
     inkscape:zoom="4.90625"
     inkscape:cx="65.019108"
     inkscape:cy="64"
     inkscape:window-width="1402"
     inkscape:window-height="903"
     inkscape:window-x="329"
     inkscape:window-y="1516"
     inkscape:window-maximized="0"
     inkscape:current-layer="svg8" />
  <g
     transform="matrix(0.09097366,0,0,-0.09097366,3.572634,91.576421)"
     fill="#000000"
     stroke="none"
     id="g6">
    <path
       d="M 81,947 C 62,940 37,922 26,907 6,879 5,869 5,480 5,91 6,81 26,53 63,4 85,1 480,1 c 395,0 417,3 454,52 20,27 21,42 24,355 L 961,734 848,847 735,960 425,959 C 212,959 104,955 81,947 Z M 220,760 V 660 h 220 220 v 94 c 0,91 1,94 24,98 20,4 39,-9 100,-71 l 76,-76 V 402 100 H 480 100 v 380 380 h 60 60 z m 130,10 v -90 h -45 -45 v 90 90 h 45 45 z"
       id="path2"
       style="fill:url(#linearGradient854);fill-opacity:1" />
    <path
       d="m 382,560 c -96,-59 -96,-201 0,-260 69,-42 166,-17 208,52 42,69 17,166 -52,208 -43,26 -113,26 -156,0 z"
       id="path4"
       style="fill:url(#linearGradient948);fill-opacity:1" />
  </g>
</svg>
