<?xml version="1.0" encoding="UTF-8" standalone="no"?>
<svg
   width="325"
   height="200"
   viewBox="0 0 325 200"
   version="1.1"
   id="svg8"
   inkscape:version="1.1.2 (0a00cf5339, 2022-02-04, custom)"
   sodipodi:docname="clear-sgs.svg"
   inkscape:export-filename="clear.png"
   inkscape:export-xdpi="96"
   inkscape:export-ydpi="96"
   xmlns:inkscape="http://www.inkscape.org/namespaces/inkscape"
   xmlns:sodipodi="http://sodipodi.sourceforge.net/DTD/sodipodi-0.dtd"
   xmlns="http://www.w3.org/2000/svg"
   xmlns:svg="http://www.w3.org/2000/svg"
   xmlns:rdf="http://www.w3.org/1999/02/22-rdf-syntax-ns#"
   xmlns:cc="http://creativecommons.org/ns#"
   xmlns:dc="http://purl.org/dc/elements/1.1/">
  <defs
     id="defs2" />
  <sodipodi:namedview
     id="base"
     pagecolor="#0a0a0a"
     bordercolor="#701717"
     borderopacity="1"
     inkscape:pageopacity="0"
     inkscape:pageshadow="2"
     inkscape:zoom="3.959798"
     inkscape:cx="208.09142"
     inkscape:cy="90.534921"
     inkscape:document-units="px"
     inkscape:current-layer="layer1"
     inkscape:document-rotation="0"
     showgrid="false"
     inkscape:pagecheckerboard="true"
     borderlayer="true"
     inkscape:showpageshadow="false"
     units="px"
     inkscape:window-width="3840"
     inkscape:window-height="2119"
     inkscape:window-x="0"
     inkscape:window-y="0"
     inkscape:window-maximized="0"
     width="400px"
     inkscape:snap-global="true"
     showguides="true"
     inkscape:guide-bbox="true" />
  <metadata
     id="metadata5">
    <rdf:RDF>
      <cc:Work
         rdf:about="">
        <dc:format>image/svg+xml</dc:format>
        <dc:type
           rdf:resource="http://purl.org/dc/dcmitype/StillImage" />
      </cc:Work>
    </rdf:RDF>
  </metadata>
  <g
     inkscape:label="Ebene 1"
     inkscape:groupmode="layer"
     id="layer1">
    <path
       id="rect1071"
       style="fill:#000000;fill-rule:evenodd;stroke-width:10.3724;paint-order:stroke markers fill;stop-color:#000000;fill-opacity:1"
       d="M 125,0 0,100 125,200 H 325 V 0 Z m 154.68164,35 c 2.42288,-0.01681 4.85326,0.894636 6.72266,2.738281 3.73882,3.687279 3.77906,9.665519 0.0918,13.404297 l -48.09179,48.763672 48.76367,48.0918 c 3.73881,3.68728 3.78103,9.66748 0.0937,13.40625 -3.68729,3.7388 -9.66554,3.77907 -13.4043,0.0918 L 225.09375,113.4043 177,162.16797 c -3.68732,3.73869 -9.66354,3.78105 -13.40234,0.0937 -3.73887,-3.68726 -3.78105,-9.66551 -0.0937,-13.4043 L 211.5957,100.09375 162.83203,52 c -3.73883,-3.68728 -3.78103,-9.665496 -0.0937,-13.404297 3.68729,-3.738845 9.6655,-3.779077 13.4043,-0.0918 L 224.9082,86.595703 273,37.832031 C 274.84365,35.962614 277.25876,35.016812 279.68164,35 Z" />
  </g>
</svg>
